<?xml version="1.0" encoding="UTF-8" standalone="no"?>
<!DOCTYPE svg PUBLIC "-//W3C//DTD SVG 1.1//EN" "http://www.w3.org/Graphics/SVG/1.1/DTD/svg11.dtd">
<svg width="100%" height="100%" viewBox="0 0 512 512" version="1.1" xmlns="http://www.w3.org/2000/svg" xmlns:xlink="http://www.w3.org/1999/xlink" xml:space="preserve" xmlns:serif="http://www.serif.com/" style="fill-rule:evenodd;clip-rule:evenodd;stroke-linejoin:round;stroke-miterlimit:2;">
    <g transform="matrix(0.976562,0,0,0.976562,6,6)">
        <circle cx="256" cy="256" r="256" style="fill:rgb(29,41,61);"/>
    </g>
    <g>
        <g transform="matrix(1.27254,0,0,1.27254,189.147,54.882)">
            <path d="M52.53,0C81.4,0 104.8,10.96 104.8,24.46C104.8,37.97 81.39,48.92 52.53,48.92C23.67,48.92 0.26,37.96 0.26,24.46C0.26,10.96 23.67,0 52.53,0ZM0.26,81.83L0.26,100.61C9.56,133.64 101.44,127.26 104.81,98.92L104.81,80.16C100.22,111.27 7.61,113.51 0.26,81.83ZM0,32.94L0,51.28C9.3,83.54 101.69,79.18 105.07,51.51L105.07,33.18C100.47,63.57 7.35,63.88 0,32.94ZM0,56.64L0,75.42C9.3,108.45 101.69,103.99 105.07,75.65L105.07,56.89C100.47,88 7.35,88.32 0,56.64Z" style="fill:white;"/>
        </g>
        <g>
            <g transform="matrix(3,0,0,3,15.5215,-114.838)">
                <circle cx="62" cy="80" r="2" style="fill:rgb(30,58,95);"/>
            </g>
            <g transform="matrix(3,0,0,3,15.5215,-85.5326)">
                <circle cx="62" cy="80" r="2" style="fill:rgb(30,58,95);"/>
            </g>
            <g transform="matrix(3,0,0,3,15.5215,-53.134)">
                <circle cx="62" cy="80" r="2" style="fill:rgb(30,58,95);"/>
            </g>
        </g>
    </g>
    <g transform="matrix(1,0,0,1,227.296,29.0463)">
        <g transform="matrix(4.39232,0,0,4.39232,-153.086,5.37586)">
            <path d="M80,55.455L80,84.545C80,84.796 79.796,85 79.545,85L56.455,85C56.204,85 56,84.796 56,84.545L56,55.455C56,55.204 56.204,55 56.455,55L79.545,55C79.796,55 80,55.204 80,55.455Z" style="fill:rgb(255,185,0);"/>
        </g>
        <g transform="matrix(4.39232,0,0,4.39232,-153.086,29.2444)">
            <path d="M77,58.228L77,60.772C77,60.898 76.898,61 76.772,61L59.228,61C59.102,61 59,60.898 59,60.772L59,58.228C59,58.102 59.102,58 59.228,58L76.772,58C76.898,58 77,58.102 77,58.228Z" style="fill:rgb(29,41,61);"/>
        </g>
        <g transform="matrix(4.39232,0,0,4.39232,-153.086,29.2444)">
            <path d="M77,63.228L77,65.772C77,65.898 76.898,66 76.772,66L59.228,66C59.102,66 59,65.898 59,65.772L59,63.228C59,63.102 59.102,63 59.228,63L76.772,63C76.898,63 77,63.102 77,63.228Z" style="fill:rgb(29,41,61);"/>
        </g>
        <g transform="matrix(4.39232,0,0,4.39232,-153.086,29.2444)">
            <path d="M77,68.228L77,70.772C77,70.898 76.898,71 76.772,71L59.228,71C59.102,71 59,70.898 59,70.772L59,68.228C59,68.102 59.102,68 59.228,68L76.772,68C76.898,68 77,68.102 77,68.228Z" style="fill:rgb(29,41,61);"/>
        </g>
        <g transform="matrix(4.39232,0,0,4.39232,-153.086,51.1778)">
            <path d="M77,68.228L77,70.772C77,70.898 76.898,71 76.772,71L59.228,71C59.102,71 59,70.898 59,70.772L59,68.228C59,68.102 59.102,68 59.228,68L76.772,68C76.898,68 77,68.102 77,68.228Z" style="fill:rgb(29,41,61);"/>
        </g>
        <g id="Séparation-header" serif:id="Séparation header" transform="matrix(5.88998,0,0,1,-254.962,198.085)">
            <rect x="59" y="68" width="18" height="3" style="fill:rgb(29,41,61);"/>
        </g>
    </g>
    <g transform="matrix(1,0,0,1,-6.41001,28.7571)">
        <g transform="matrix(4.39232,0,0,4.39232,-153.086,5.37586)">
            <path d="M80,55.455L80,84.545C80,84.796 79.796,85 79.545,85L56.455,85C56.204,85 56,84.796 56,84.545L56,55.455C56,55.204 56.204,55 56.455,55L79.545,55C79.796,55 80,55.204 80,55.455Z" style="fill:rgb(255,185,0);"/>
        </g>
        <g transform="matrix(4.39232,0,0,4.39232,-153.086,29.2444)">
            <path d="M77,58.228L77,60.772C77,60.898 76.898,61 76.772,61L59.228,61C59.102,61 59,60.898 59,60.772L59,58.228C59,58.102 59.102,58 59.228,58L76.772,58C76.898,58 77,58.102 77,58.228Z" style="fill:rgb(29,41,61);"/>
        </g>
        <g transform="matrix(4.39232,0,0,4.39232,-153.086,29.2444)">
            <path d="M77,63.228L77,65.772C77,65.898 76.898,66 76.772,66L59.228,66C59.102,66 59,65.898 59,65.772L59,63.228C59,63.102 59.102,63 59.228,63L76.772,63C76.898,63 77,63.102 77,63.228Z" style="fill:rgb(29,41,61);"/>
        </g>
        <g transform="matrix(4.39232,0,0,4.39232,-153.086,29.2444)">
            <path d="M77,68.228L77,70.772C77,70.898 76.898,71 76.772,71L59.228,71C59.102,71 59,70.898 59,70.772L59,68.228C59,68.102 59.102,68 59.228,68L76.772,68C76.898,68 77,68.102 77,68.228Z" style="fill:rgb(29,41,61);"/>
        </g>
        <g transform="matrix(4.39232,0,0,4.39232,-153.086,51.1778)">
            <path d="M77,68.228L77,70.772C77,70.898 76.898,71 76.772,71L59.228,71C59.102,71 59,70.898 59,70.772L59,68.228C59,68.102 59.102,68 59.228,68L76.772,68C76.898,68 77,68.102 77,68.228Z" style="fill:rgb(29,41,61);"/>
        </g>
        <g id="Séparation-header1" serif:id="Séparation header" transform="matrix(5.88998,0,0,1,-254.962,198.085)">
            <rect x="59" y="68" width="18" height="3" style="fill:rgb(29,41,61);"/>
        </g>
    </g>
    <g>
        <g transform="matrix(0.59717,0,0,0.589878,66.4887,107.274)">
            <rect x="121.73" y="222.554" width="195.619" height="11.867" style="fill:white;"/>
        </g>
        <g transform="matrix(0.626016,0,0,0.589878,174.153,107.274)">
            <rect x="121.73" y="222.554" width="195.619" height="11.867" style="fill:white;"/>
        </g>
        <g transform="matrix(0.180839,0,0,0.589878,333.117,132.782)">
            <rect x="121.73" y="222.554" width="195.619" height="11.867" style="fill:white;"/>
        </g>
        <g transform="matrix(0.180839,0,0,0.589878,99.4806,132.782)">
            <rect x="121.73" y="222.554" width="195.619" height="11.867" style="fill:white;"/>
        </g>
        <g transform="matrix(0.919255,0,0,0.773246,160.588,59.7784)">
            <rect x="99.651" y="202.865" width="7.615" height="31.556" style="fill:white;"/>
        </g>
        <g transform="matrix(0.919255,0,0,0.919255,277.441,52.0693)">
            <rect x="99.651" y="202.865" width="7.615" height="31.556" style="fill:white;"/>
        </g>
        <g transform="matrix(0.919255,0,0,0.919255,44.0772,52.0693)">
            <rect x="99.651" y="202.865" width="7.615" height="31.556" style="fill:white;"/>
        </g>
    </g>
</svg>
