<svg xmlns="http://www.w3.org/2000/svg" xml:space="preserve" style="fill-rule:evenodd;clip-rule:evenodd;stroke-linejoin:round;stroke-miterlimit:2" viewBox="0 0 472 469"><path d="M52.53 0C81.4 0 104.8 10.96 104.8 24.46c0 13.51-23.41 24.46-52.27 24.46S.26 37.96.26 24.46 23.67 0 52.53 0M.26 81.83v18.78c9.3 33.03 101.18 26.65 104.55-1.69V80.16c-4.59 31.11-97.2 33.35-104.55 1.67M0 32.94v18.34c9.3 32.26 101.69 27.9 105.07.23V33.18C100.47 63.57 7.35 63.88 0 32.94m0 23.7v18.78c9.3 33.03 101.69 28.57 105.07.23V56.89C100.47 88 7.35 88.32 0 56.64" style="fill:#1d293d" transform="translate(150.864)scale(1.61975)"/><circle cx="62" cy="80" r="2" style="fill:#ffb900" transform="translate(-70.135 -216.028)scale(3.81855)"/><circle cx="62" cy="80" r="2" style="fill:#ffb900" transform="translate(-70.135 -178.726)scale(3.81855)"/><circle cx="62" cy="80" r="2" style="fill:#ffb900" transform="translate(-70.135 -137.488)scale(3.81855)"/><path d="M80 55.332v29.336a.33.33 0 0 1-.332.332H56.332a.33.33 0 0 1-.332-.332V55.332c0-.183.149-.332.332-.332h23.336c.183 0 .332.149.332.332" style="fill:#ffb900" transform="translate(-337.545 -44.329)scale(6.02758)"/><path d="M77 58.086v2.828c0 .048-.074.086-.166.086H59.166c-.092 0-.166-.038-.166-.086v-2.828c0-.048.074-.086.166-.086h17.668c.092 0 .166.038.166.086" style="fill:#1d293d" transform="matrix(6.02758 0 0 11.65081 -337.545 -264.672)"/><path d="M77 58.086v2.828c0 .048-.074.086-.166.086H59.166c-.092 0-.166-.038-.166-.086v-2.828c0-.048.074-.086.166-.086h17.668c.092 0 .166.038.166.086" style="fill:#1d293d" transform="matrix(6.02758 0 0 11.65081 -337.545 -315.661)"/><path d="M77 58.086v2.828c0 .048-.074.086-.166.086H59.166c-.092 0-.166-.038-.166-.086v-2.828c0-.048.074-.086.166-.086h17.668c.092 0 .166.038.166.086" style="fill:#1d293d" transform="matrix(6.02758 0 0 11.65081 -337.545 -366.57)"/><path d="M80 55.332v29.336a.33.33 0 0 1-.332.332H56.332a.33.33 0 0 1-.332-.332V55.332c0-.183.149-.332.332-.332h23.336c.183 0 .332.149.332.332" style="fill:#ffb900" transform="translate(-10.451 -44.329)scale(6.02758)"/><path d="M77 58.086v2.828c0 .048-.074.086-.166.086H59.166c-.092 0-.166-.038-.166-.086v-2.828c0-.048.074-.086.166-.086h17.668c.092 0 .166.038.166.086" style="fill:#1d293d" transform="matrix(6.02758 0 0 11.65081 -10.451 -264.672)"/><path d="M77 58.086v2.828c0 .048-.074.086-.166.086H59.166c-.092 0-.166-.038-.166-.086v-2.828c0-.048.074-.086.166-.086h17.668c.092 0 .166.038.166.086" style="fill:#1d293d" transform="matrix(6.02758 0 0 11.65081 -10.451 -315.661)"/><path d="M77 58.086v2.828c0 .048-.074.086-.166.086H59.166c-.092 0-.166-.038-.166-.086v-2.828c0-.048.074-.086.166-.086h17.668c.092 0 .166.038.166.086" style="fill:#1d293d" transform="matrix(6.02758 0 0 11.65081 -10.451 -366.57)"/><path d="M44.631 114.918H58.54v126.073H44.631z" style="fill:#1d293d" transform="rotate(45.005 14.288 260.002)scale(1 1.04322)"/><path d="M44.631 114.918H58.54v126.073H44.631z" style="fill:#1d293d" transform="rotate(-44.97 273.245 -185.165)scale(1 1.04322)"/></svg>