<svg width="100" height="100" viewBox="0 0 100 100" fill="none" xmlns="http://www.w3.org/2000/svg">
  <!-- Hexagone de fond (coins arrondis, ratio 1:1) -->
  <path d="M50 5Q55 5 58 8L87 27Q92 30 92 36V64Q92 70 87 73L58 92Q55 95 50 95Q45 95 42 92L13 73Q8 70 8 64V36Q8 30 13 27L42 8Q45 5 50 5Z" fill="#1E3A5F"/>

  <path d="M100 30C127.614 30 150 36.7157 150 45C150 53.2843 127.614 60 100 60C72.3858 60 50 53.2843 50 45C50 36.7157 72.3858 30 100 30Z" fill="#3B82F6" stroke="#2563EB" stroke-width="4"/>
  <path d="M50 45V75C50 83.2843 72.3858 90 100 90C127.614 90 150 83.2843 150 75V45" stroke="#2563EB" stroke-width="4" stroke-linecap="round" stroke-linejoin="round"/>

  <!-- Cylindre base de données -->
  <!-- Disque du bas (face avant uniquement) -->
  <ellipse cx="50" cy="38" rx="12" ry="4" fill="#fff"/>

  <!-- Disque du milieu (face avant uniquement) -->
  <ellipse cx="50" cy="28" rx="12" ry="4" fill="#fff"/>

  <!-- Couvercle (cercle en haut) -->
  <ellipse cx="50" cy="18" rx="12" ry="4" fill="#fff"/>

  <!-- Ligne centrale vers le bas -->
  <line x1="50" y1="36" x2="50" y2="48" stroke="#fff" stroke-width="2"/>

  <!-- Lignes de connexion vers les serveurs -->
  <path d="M50 48L32 55" stroke="#fff" stroke-width="2"/>
  <path d="M50 48L68 55" stroke="#fff" stroke-width="2"/>

  <!-- Serveur gauche -->
  <rect x="20" y="55" width="24" height="30" rx="2" fill="#fff"/>
  <rect x="23" y="58" width="18" height="3" rx="1" fill="#1E3A5F"/>
  <rect x="23" y="63" width="18" height="3" rx="1" fill="#1E3A5F"/>
  <rect x="23" y="68" width="18" height="3" rx="1" fill="#1E3A5F"/>
  <circle cx="26" cy="80" r="2" fill="#1E3A5F"/>
  <circle cx="32" cy="80" r="2" fill="#1E3A5F"/>
  <circle cx="38" cy="80" r="2" fill="#1E3A5F"/>

  <!-- Serveur droit -->
  <rect x="56" y="55" width="24" height="30" rx="2" fill="#fff"/>
  <rect x="59" y="58" width="18" height="3" rx="1" fill="#1E3A5F"/>
  <rect x="59" y="63" width="18" height="3" rx="1" fill="#1E3A5F"/>
  <rect x="59" y="68" width="18" height="3" rx="1" fill="#1E3A5F"/>
  <circle cx="62" cy="80" r="2" fill="#1E3A5F"/>
  <circle cx="68" cy="80" r="2" fill="#1E3A5F"/>
  <circle cx="74" cy="80" r="2" fill="#1E3A5F"/>
</svg>
